# xmcd
#
# Track frame offsets: 
#        150
#        19960
#        34355
#        46954
#        60268
#        75991
#        89766
#        104438
#        115393
#        133279
#        146117
#        159352
#        169874
#        184298
#        200654
#        216796
#
# Disc length: 3094 seconds
#
# Revision: 0
# Processed by: cddbd v1.5.2PL0 Copyright (c) Steve Scherf et al.
# Submitted via: ExactAudioCopy v0.99pb4
#
DISCID=ec0c1410
DTITLE=Various Artist - For my Baby
DYEAR=2007
DGENRE=Soul
TTITLE0=Jose Feliciano - Right here waiting
TTITLE1=The Everly Brothers - Price of Love
TTITLE2=Classic IV feat. Dennis Yost - Traces
TTITLE3=Maxine Nightingale - Lead me on
TTITLE4=Taylor Dayne - Prove your Love
TTITLE5=Aaron Neville - Tell it like it is
TTITLE6=Helen Reddy - I don`t know how to love him
TTITLE7=Tony Burrows of White Plains - Julie do you love me
TTITLE8=Billy Joel Royal - Please come to Boston
TTITLE9=The Miracles - More Love
TTITLE10=Brook Benton - For my Baby
TTITLE11=The Delfonics - He don`t really love You
TTITLE12=Vie Damone - Yesterday
TTITLE13=Ben E. King - I had Love
TTITLE14=Harold Melvin and The Blue Notes - If you don`t know me by now
TTITLE15=Andrew Gold - Never let her slip away
EXTD=
EXTT0=
EXTT1=
EXTT2=
EXTT3=
EXTT4=
EXTT5=
EXTT6=
EXTT7=
EXTT8=
EXTT9=
EXTT10=
EXTT11=
EXTT12=
EXTT13=
EXTT14=
EXTT15=
PLAYORDER=
